<mxfile host="app.diagrams.net" modified="2023-05-15T06:13:49.888Z" agent="Mozilla/5.0 (Windows NT 10.0; Win64; x64) AppleWebKit/537.36 (KHTML, like Gecko) Chrome/113.0.0.0 Safari/537.36" etag="1hsC8vsvklpF33rVKnJk" version="21.3.0" type="device">
  <diagram name="페이지-1" id="Uo_mIerZIIeKF8Xnc2w3">
    <mxGraphModel dx="862" dy="610" grid="1" gridSize="10" guides="1" tooltips="1" connect="1" arrows="1" fold="1" page="1" pageScale="1" pageWidth="827" pageHeight="1169" math="0" shadow="0">
      <root>
        <mxCell id="0" />
        <mxCell id="1" parent="0" />
        <mxCell id="B5aGYssZvOTrnuau2Bmx-1" value="User" style="shape=umlActor;verticalLabelPosition=bottom;verticalAlign=top;html=1;outlineConnect=0;" vertex="1" parent="1">
          <mxGeometry x="90" y="520" width="30" height="60" as="geometry" />
        </mxCell>
        <mxCell id="B5aGYssZvOTrnuau2Bmx-17" style="edgeStyle=orthogonalEdgeStyle;rounded=0;orthogonalLoop=1;jettySize=auto;html=1;entryX=-0.002;entryY=0.235;entryDx=0;entryDy=0;entryPerimeter=0;" edge="1" parent="1" source="B5aGYssZvOTrnuau2Bmx-8" target="B5aGYssZvOTrnuau2Bmx-12">
          <mxGeometry relative="1" as="geometry" />
        </mxCell>
        <mxCell id="B5aGYssZvOTrnuau2Bmx-8" value="" style="shape=cube;whiteSpace=wrap;html=1;boundedLbl=1;backgroundOutline=1;darkOpacity=0.05;darkOpacity2=0.1;" vertex="1" parent="1">
          <mxGeometry x="210" y="250" width="80" height="60" as="geometry" />
        </mxCell>
        <mxCell id="B5aGYssZvOTrnuau2Bmx-9" value="Images&lt;br&gt;uploaded to SNS&lt;br&gt;by User" style="text;html=1;strokeColor=none;fillColor=none;align=center;verticalAlign=middle;whiteSpace=wrap;rounded=0;" vertex="1" parent="1">
          <mxGeometry x="200" y="310" width="110" height="50" as="geometry" />
        </mxCell>
        <mxCell id="B5aGYssZvOTrnuau2Bmx-25" style="edgeStyle=orthogonalEdgeStyle;rounded=0;orthogonalLoop=1;jettySize=auto;html=1;exitX=0.5;exitY=1;exitDx=0;exitDy=0;entryX=0.5;entryY=0;entryDx=0;entryDy=0;" edge="1" parent="1" source="B5aGYssZvOTrnuau2Bmx-12" target="B5aGYssZvOTrnuau2Bmx-24">
          <mxGeometry relative="1" as="geometry" />
        </mxCell>
        <mxCell id="B5aGYssZvOTrnuau2Bmx-12" value="" style="rounded=0;whiteSpace=wrap;html=1;" vertex="1" parent="1">
          <mxGeometry x="360" y="200" width="140" height="340" as="geometry" />
        </mxCell>
        <mxCell id="B5aGYssZvOTrnuau2Bmx-19" style="edgeStyle=orthogonalEdgeStyle;rounded=0;orthogonalLoop=1;jettySize=auto;html=1;exitX=0.5;exitY=1;exitDx=0;exitDy=0;" edge="1" parent="1" source="B5aGYssZvOTrnuau2Bmx-13" target="B5aGYssZvOTrnuau2Bmx-14">
          <mxGeometry relative="1" as="geometry" />
        </mxCell>
        <mxCell id="B5aGYssZvOTrnuau2Bmx-13" value="Download image&lt;br&gt;uploaded by User&lt;br&gt;periodically" style="ellipse;whiteSpace=wrap;html=1;" vertex="1" parent="1">
          <mxGeometry x="370" y="240" width="120" height="80" as="geometry" />
        </mxCell>
        <mxCell id="B5aGYssZvOTrnuau2Bmx-20" style="edgeStyle=orthogonalEdgeStyle;rounded=0;orthogonalLoop=1;jettySize=auto;html=1;exitX=0.5;exitY=1;exitDx=0;exitDy=0;entryX=0.5;entryY=0;entryDx=0;entryDy=0;" edge="1" parent="1" source="B5aGYssZvOTrnuau2Bmx-14" target="B5aGYssZvOTrnuau2Bmx-15">
          <mxGeometry relative="1" as="geometry" />
        </mxCell>
        <mxCell id="B5aGYssZvOTrnuau2Bmx-14" value="Extract&lt;br&gt;face image" style="ellipse;whiteSpace=wrap;html=1;" vertex="1" parent="1">
          <mxGeometry x="370" y="340" width="120" height="80" as="geometry" />
        </mxCell>
        <mxCell id="B5aGYssZvOTrnuau2Bmx-15" value="Train&lt;br&gt;Deep-Learning&lt;br&gt;Face Recognition&lt;br&gt;Model" style="ellipse;whiteSpace=wrap;html=1;" vertex="1" parent="1">
          <mxGeometry x="370" y="440" width="120" height="80" as="geometry" />
        </mxCell>
        <mxCell id="B5aGYssZvOTrnuau2Bmx-16" value="Our Project" style="text;html=1;strokeColor=none;fillColor=none;align=center;verticalAlign=middle;whiteSpace=wrap;rounded=0;" vertex="1" parent="1">
          <mxGeometry x="370" y="200" width="120" height="30" as="geometry" />
        </mxCell>
        <mxCell id="B5aGYssZvOTrnuau2Bmx-18" value="" style="endArrow=classic;html=1;rounded=0;entryX=0;entryY=0;entryDx=0;entryDy=20;entryPerimeter=0;" edge="1" parent="1" target="B5aGYssZvOTrnuau2Bmx-8">
          <mxGeometry width="50" height="50" relative="1" as="geometry">
            <mxPoint x="130" y="550" as="sourcePoint" />
            <mxPoint x="530" y="420" as="targetPoint" />
          </mxGeometry>
        </mxCell>
        <mxCell id="B5aGYssZvOTrnuau2Bmx-26" style="edgeStyle=orthogonalEdgeStyle;rounded=0;orthogonalLoop=1;jettySize=auto;html=1;exitX=1;exitY=0.5;exitDx=0;exitDy=0;" edge="1" parent="1" source="B5aGYssZvOTrnuau2Bmx-21" target="B5aGYssZvOTrnuau2Bmx-24">
          <mxGeometry relative="1" as="geometry" />
        </mxCell>
        <mxCell id="B5aGYssZvOTrnuau2Bmx-21" value="" style="rounded=1;whiteSpace=wrap;html=1;" vertex="1" parent="1">
          <mxGeometry x="235" y="600" width="30" height="50" as="geometry" />
        </mxCell>
        <mxCell id="B5aGYssZvOTrnuau2Bmx-22" value="Image&lt;br&gt;trying to upload" style="text;html=1;strokeColor=none;fillColor=none;align=center;verticalAlign=middle;whiteSpace=wrap;rounded=0;" vertex="1" parent="1">
          <mxGeometry x="205" y="660" width="90" height="30" as="geometry" />
        </mxCell>
        <mxCell id="B5aGYssZvOTrnuau2Bmx-34" style="edgeStyle=orthogonalEdgeStyle;rounded=0;orthogonalLoop=1;jettySize=auto;html=1;exitX=1;exitY=0.5;exitDx=0;exitDy=0;entryX=0;entryY=0.5;entryDx=0;entryDy=0;" edge="1" parent="1" source="B5aGYssZvOTrnuau2Bmx-24" target="B5aGYssZvOTrnuau2Bmx-33">
          <mxGeometry relative="1" as="geometry" />
        </mxCell>
        <mxCell id="B5aGYssZvOTrnuau2Bmx-24" value="Trained&lt;br&gt;Face Recognition&lt;br&gt;Model" style="rounded=0;whiteSpace=wrap;html=1;" vertex="1" parent="1">
          <mxGeometry x="370" y="595" width="120" height="60" as="geometry" />
        </mxCell>
        <mxCell id="B5aGYssZvOTrnuau2Bmx-27" value="" style="endArrow=classic;html=1;rounded=0;entryX=0;entryY=0.5;entryDx=0;entryDy=0;" edge="1" parent="1" target="B5aGYssZvOTrnuau2Bmx-21">
          <mxGeometry width="50" height="50" relative="1" as="geometry">
            <mxPoint x="130" y="550" as="sourcePoint" />
            <mxPoint x="210" y="500" as="targetPoint" />
          </mxGeometry>
        </mxCell>
        <mxCell id="B5aGYssZvOTrnuau2Bmx-30" value="○" style="text;html=1;strokeColor=none;fillColor=none;align=center;verticalAlign=middle;whiteSpace=wrap;rounded=0;" vertex="1" parent="1">
          <mxGeometry x="241" y="628" width="20" height="30" as="geometry" />
        </mxCell>
        <mxCell id="B5aGYssZvOTrnuau2Bmx-33" value="Tags&lt;br&gt;#person1, #person2..." style="rounded=1;whiteSpace=wrap;html=1;" vertex="1" parent="1">
          <mxGeometry x="560" y="595" width="140" height="60" as="geometry" />
        </mxCell>
      </root>
    </mxGraphModel>
  </diagram>
</mxfile>
